<?xml version="1.0" encoding="UTF-8"?>
<svg version="1.1" xmlns="http://www.w3.org/2000/svg" width="120" height="120">
<path d="M0 0 C0.80759766 -0.01611328 1.61519531 -0.03222656 2.44726562 -0.04882812 C8.14031711 -0.0534156 12.34173859 1.04077948 17.5625 3.3125 C16.95259109 6.87030196 15.9841319 9.9953589 14.5625 13.3125 C15.8825 13.6425 17.2025 13.9725 18.5625 14.3125 C19.5525 11.3425 20.5425 8.3725 21.5625 5.3125 C32.52307038 10.09529435 40.16991305 17.57934463 45.5625 28.3125 C45.5625 29.3025 45.5625 30.2925 45.5625 31.3125 C41.6025 32.7975 41.6025 32.7975 37.5625 34.3125 C37.5625 35.3025 37.5625 36.2925 37.5625 37.3125 C40.8625 36.3225 44.1625 35.3325 47.5625 34.3125 C49.44550414 39.90149635 49.89834737 44.87113195 49.875 50.75 C49.89111328 51.55759766 49.90722656 52.36519531 49.92382812 53.19726562 C49.9284156 58.89031711 48.83422052 63.09173859 46.5625 68.3125 C43.00469804 67.70259109 39.8796411 66.7341319 36.5625 65.3125 C36.0675 67.2925 36.0675 67.2925 35.5625 69.3125 C38.5325 70.3025 41.5025 71.2925 44.5625 72.3125 C39.77970565 83.27307038 32.29565537 90.91991305 21.5625 96.3125 C20.5725 96.3125 19.5825 96.3125 18.5625 96.3125 C17.5725 93.6725 16.5825 91.0325 15.5625 88.3125 C14.5725 88.3125 13.5825 88.3125 12.5625 88.3125 C13.5525 91.6125 14.5425 94.9125 15.5625 98.3125 C9.97350365 100.19550414 5.00386805 100.64834737 -0.875 100.625 C-2.08639648 100.64916992 -2.08639648 100.64916992 -3.32226562 100.67382812 C-9.01531711 100.6784156 -13.21673859 99.58422052 -18.4375 97.3125 C-17.82759109 93.75469804 -16.8591319 90.6296411 -15.4375 87.3125 C-16.7575 86.9825 -18.0775 86.6525 -19.4375 86.3125 C-20.4275 89.2825 -21.4175 92.2525 -22.4375 95.3125 C-33.39807038 90.52970565 -41.04491305 83.04565537 -46.4375 72.3125 C-46.4375 71.3225 -46.4375 70.3325 -46.4375 69.3125 C-43.7975 68.3225 -41.1575 67.3325 -38.4375 66.3125 C-38.4375 65.3225 -38.4375 64.3325 -38.4375 63.3125 C-41.7375 64.3025 -45.0375 65.2925 -48.4375 66.3125 C-50.32050414 60.72350365 -50.77334737 55.75386805 -50.75 49.875 C-50.76611328 49.06740234 -50.78222656 48.25980469 -50.79882812 47.42773438 C-50.8034156 41.73468289 -49.70922052 37.53326141 -47.4375 32.3125 C-43.87969804 32.92240891 -40.7546411 33.8908681 -37.4375 35.3125 C-37.1075 33.9925 -36.7775 32.6725 -36.4375 31.3125 C-39.4075 30.3225 -42.3775 29.3325 -45.4375 28.3125 C-40.65470565 17.35192962 -33.17065537 9.70508695 -22.4375 4.3125 C-21.4475 4.3125 -20.4575 4.3125 -19.4375 4.3125 C-17.9525 8.2725 -17.9525 8.2725 -16.4375 12.3125 C-15.4475 12.3125 -14.4575 12.3125 -13.4375 12.3125 C-14.4275 9.0125 -15.4175 5.7125 -16.4375 2.3125 C-10.84850365 0.42949586 -5.87886805 -0.02334737 0 0 Z M-22.2265625 30.015625 C-27.84569667 36.16068798 -30.41035708 43.02033943 -30.4375 51.3125 C-29.76870759 60.54474298 -25.78482991 67.48335373 -19 73.6875 C-12.40020242 78.90090684 -5.23965166 80.73281335 3.04296875 80.1328125 C11.93595232 78.7816305 18.8177091 74.10177073 24.34765625 67.0859375 C29.12398837 60.11341408 30.41174631 52.00439421 29 43.75 C26.85115654 35.64169735 21.41660663 28.99739486 14.5625 24.3125 C1.60970497 17.35636934 -11.77911899 20.07002376 -22.2265625 30.015625 Z " fill="#FFFFFF" transform="translate(60.4375,9.6875)"/>
</svg>
