<?xml version="1.0" encoding="UTF-8"?>
<svg version="1.1" xmlns="http://www.w3.org/2000/svg" width="120" height="120">
<path d="M0 0 C0.66 0 1.32 0 2 0 C2.23074219 0.65226562 2.46148437 1.30453125 2.69921875 1.9765625 C6.07930648 11.0619403 6.07930648 11.0619403 13.296875 17.25 C20.08318496 20.21129889 25.75884496 20.75543152 33 19 C32.44888966 22.8653914 31.42791612 25.21907984 29.0859375 28.328125 C28.48910156 29.12863281 27.89226563 29.92914063 27.27734375 30.75390625 C26.64957031 31.57761719 26.02179687 32.40132812 25.375 33.25 C24.46814453 34.46236328 24.46814453 34.46236328 23.54296875 35.69921875 C22.32274227 37.32532014 21.09478256 38.94564747 19.85913086 40.56005859 C18.5928316 42.22196205 17.34423508 43.89746961 16.11157227 45.58447266 C15.50627686 46.39964355 14.90098145 47.21481445 14.27734375 48.0546875 C13.73843506 48.79187012 13.19952637 49.52905273 12.64428711 50.28857422 C11 52 11 52 7.1875 52.875 C-3.40359682 51.50774858 -11.64554446 43.88045999 -18.55078125 36.296875 C-20.34067079 33.9595622 -21 32.32716661 -21 29.37890625 C-19.53605823 24.43238426 -16.54897223 21.07738912 -13.3125 17.125 C-12.07879885 15.58644104 -10.84572104 14.04738204 -9.61328125 12.5078125 C-9.0095166 11.76305664 -8.40575195 11.01830078 -7.78369141 10.25097656 C-5.5082507 7.37942396 -3.36844915 4.41844485 -1.25073242 1.42919922 C-0.83799072 0.95756348 -0.42524902 0.48592773 0 0 Z M0 12 C-0.33 12.99 -0.66 13.98 -1 15 C3.13676375 21.43643434 8.93908601 26.34201504 16.375 28.25 C17.57125 28.4975 18.7675 28.745 20 29 C20.33 28.01 20.66 27.02 21 26 C20.05898438 25.57589844 19.11796875 25.15179688 18.1484375 24.71484375 C10.95479202 21.36410166 5.71973389 18.60762745 1 12 C0.67 12 0.34 12 0 12 Z " fill="#FFFFFF" transform="translate(34,62)"/>
<path d="M0 0 C1.9504225 1.33632052 3.61543619 2.80035965 5.328125 4.4296875 C7.09255966 6.17364054 7.09255966 6.17364054 9.8125 7.875 C13.28718508 11.25040837 13.59406983 15.52336986 14.34765625 20.12109375 C15.08873763 23.92723014 15.86395687 26.31322121 18.8125 28.9375 C22.62864077 31.49811981 22.62864077 31.49811981 27 32 C30.29248108 30.16682624 30.29248108 30.16682624 33 28 C33.8125 29.6875 33.8125 29.6875 34 32 C32.125 34.8125 32.125 34.8125 29 37 C24.3957464 37.5068903 20.81842001 36.42494885 16.75 34.3125 C9.92040082 28.56942797 7.7181988 23.19620103 5.328125 14.83789062 C4.58727767 12.33242601 4.58727767 12.33242601 3 9 C-0.28081814 7.59466513 -1.50521863 7.82790213 -4.875 9 C-11.73765827 13.39210129 -17.08550108 19.30677313 -20 27 C-20.3655255 29.82110704 -20.25970569 32.14323741 -20 35 C-18.68 35.33 -17.36 35.66 -16 36 C-16.3125 37.9375 -16.3125 37.9375 -17 40 C-18.485 40.495 -18.485 40.495 -20 41 C-23.73203449 38.33426108 -26.29150943 36.3281761 -28 32 C-28.89057667 24.10980316 -24.62678991 17.98558694 -20 12 C-8.11976919 -1.46155846 -8.11976919 -1.46155846 0 0 Z " fill="#FFFFFF" transform="translate(32,43)"/>
<path d="M0 0 C2.74303956 1.05960224 4.59949697 2.25417961 7 4 C6.34 5.32 5.68 6.64 5 8 C4.030625 7.67 3.06125 7.34 2.0625 7 C-4.42808787 5.24454076 -4.42808787 5.24454076 -11 6 C-14.4068992 8.74126553 -16.61588236 12.38361062 -19 16 C-20.08635902 17.60476312 -21.17367864 19.20887619 -22.26171875 20.8125 C-25.30293784 25.32104695 -28.29909941 29.85794711 -31.28564453 34.40283203 C-32.87332575 36.80809447 -34.47653222 39.20172159 -36.08984375 41.58984375 C-36.55342285 42.27731689 -37.01700195 42.96479004 -37.49462891 43.6730957 C-38.35008164 44.94011026 -39.20770457 46.20566328 -40.06787109 47.46948242 C-41.75388578 49.9775467 -43.03821842 52.11465525 -44 55 C-48.55384615 55.36923077 -48.55384615 55.36923077 -50.8125 53.5 C-51.204375 53.005 -51.59625 52.51 -52 52 C-51.67 51.01 -51.34 50.02 -51 49 C-50.01 49.33 -49.02 49.66 -48 50 C-47.72631592 49.25935303 -47.45263184 48.51870605 -47.1706543 47.75561523 C-46.076229 45.17943623 -44.89179608 43.17751952 -43.26953125 40.91015625 C-42.72095459 40.13599365 -42.17237793 39.36183105 -41.60717773 38.56420898 C-41.01493408 37.73864502 -40.42269043 36.91308105 -39.8125 36.0625 C-35.77442456 30.38692266 -31.7734071 24.69761543 -27.9140625 18.8984375 C-26.91669067 17.40558228 -26.91669067 17.40558228 -25.89916992 15.88256836 C-24.61269814 13.95117955 -23.33392319 12.01463696 -22.0637207 10.07250977 C-21.17946411 8.75077759 -21.17946411 8.75077759 -20.27734375 7.40234375 C-19.76421631 6.62366943 -19.25108887 5.84499512 -18.72241211 5.04272461 C-13.63977304 -0.98511963 -7.34576914 -0.92064389 0 0 Z " fill="#FFFFFF" transform="translate(109,6)"/>
<path d="M0 0 C3.0625 0.125 3.0625 0.125 5.0625 1.125 C5.74256296 3.64628145 6.32897996 6.13732207 6.875 8.6875 C8.9310885 17.52916895 11.49111993 23.65678106 19.0625 29.125 C20.46185013 31.92370027 20.31515405 34.02998792 20.0625 37.125 C18.6875 39 18.6875 39 17.0625 40.125 C16.4025 40.125 15.7425 40.125 15.0625 40.125 C14.670625 39.0525 14.27875 37.98 13.875 36.875 C11.89835869 32.26283695 8.75530284 30.18300178 4.5625 27.5625 C-0.43295541 22.69193098 -3.67019968 14.80275556 -4.0703125 7.80078125 C-4.06773438 7.02089844 -4.06515625 6.24101562 -4.0625 5.4375 C-4.06507812 4.64988281 -4.06765625 3.86226562 -4.0703125 3.05078125 C-3.85054413 -0.13586007 -3.24635625 0.13814282 0 0 Z " fill="#FFFFFF" transform="translate(32.9375,17.875)"/>
<path d="M0 0 C0.99 0.66 1.98 1.32 3 2 C3 2.66 3 3.32 3 4 C3.94875 4.309375 4.8975 4.61875 5.875 4.9375 C9 6 9 6 11 7 C9.75023244 10.65316671 9.32901247 11.78065836 6 14 C3.0625 13.9375 3.0625 13.9375 0 13 C-2.375 10.4375 -2.375 10.4375 -4 8 C-2.68 5.36 -1.36 2.72 0 0 Z " fill="#FFFFFF" transform="translate(53,58)"/>
</svg>
