<?xml version="1.0" encoding="UTF-8"?>
<svg version="1.1" xmlns="http://www.w3.org/2000/svg" width="120" height="120">
<path d="M0 0 C0.79056793 0.00707474 1.58113586 0.01414948 2.3956604 0.0214386 C4.90278683 0.04926662 7.40761962 0.11197651 9.9140625 0.17578125 C11.62106133 0.20087941 13.32809542 0.22368992 15.03515625 0.24414062 C19.20399898 0.29905434 23.37114288 0.38524049 27.5390625 0.48828125 C26.9524585 1.13313477 26.9524585 1.13313477 26.35400391 1.79101562 C10.03223712 20.19502441 7.53146358 46.34722499 8.87866211 69.9675293 C10.25955811 89.14025565 15.49579789 105.45619978 27.5390625 120.48828125 C22.55877235 120.66237713 17.58028249 120.78883128 12.59765625 120.87280273 C10.90593587 120.90783168 9.21442476 120.95547269 7.5234375 121.01635742 C-8.3378085 121.57281033 -8.3378085 121.57281033 -13.4140625 117.30859375 C-26.50147783 102.52362412 -28.88839441 79.88942289 -28.8359375 60.98828125 C-28.83572601 60.28473511 -28.83551453 59.58118896 -28.83529663 58.85632324 C-28.77766105 39.6098646 -26.16973455 17.27842809 -11.89575195 2.90527344 C-8.08702621 -0.21552435 -4.76980172 -0.16271439 0 0 Z " fill="#FFFFFF" transform="translate(44.4609375,-0.48828125)"/>
<path d="M0 0 C6.98071159 2.99173354 10.99305187 10.05833936 13.76367188 16.88037109 C18.81300734 30.7181502 20.4145778 44.39337558 20.375 59.0625 C20.37478851 59.78722504 20.37457703 60.51195007 20.37435913 61.25863647 C20.31823659 80.56186379 17.69896125 101.32892814 4.6328125 116.59765625 C1.91295709 119.23665109 -0.16176424 120.03130921 -3.875 120.75 C-8.32886874 120.41001002 -10.98619624 118.36424133 -14.1171875 115.30078125 C-26.21370837 100.51893313 -28.42596014 78.86182941 -28.375 60.5 C-28.37478851 59.79645386 -28.37457703 59.09290771 -28.37435913 58.36804199 C-28.31697487 39.20550579 -25.58935348 18.54298736 -12.6328125 3.40234375 C-8.72115396 -0.39302224 -5.15013339 -1.05696903 0 0 Z M-4 16 C-4.99 16.66 -5.98 17.32 -7 18 C-4.69 18.66 -2.38 19.32 0 20 C-0.33 19.01 -0.66 18.02 -1 17 C-1.99 16.67 -2.98 16.34 -4 16 Z M1 22 C2 24 2 24 2 24 Z M-11 23 C-18.35033528 43.92395443 -18.94615272 72.92889559 -12 94 C-11.34 94.99 -10.68 95.98 -10 97 C-2.8003455 75.5757854 -1.6328297 51.7978126 -8 30 C-8.31710938 28.84177734 -8.31710938 28.84177734 -8.640625 27.66015625 C-9.0729099 26.10084285 -9.53173161 24.54888774 -10 23 C-10.33 23 -10.66 23 -11 23 Z M2 24 C3 27 3 27 3 27 Z M3 27 C4 30 4 30 4 30 Z M4 31 C5 35 5 35 5 35 Z M5 35 C5.00523682 36.20422607 5.01047363 37.40845215 5.01586914 38.64916992 C5.03415877 43.1761804 5.04551836 47.7031877 5.05493164 52.23022461 C5.05991766 54.17847241 5.06670888 56.12671655 5.07543945 58.07495117 C5.12210705 68.76732094 5.11012883 79.35302595 4 90 C4.33 90 4.66 90 5 90 C8.95962426 71.7780398 8.27431429 53.38247415 6 35 C5.67 35 5.34 35 5 35 Z M3 90 C4 93 4 93 4 93 Z M2 93 C3 96 3 96 3 96 Z M1 96 C2 98 2 98 2 98 Z M-1 100 C-1.33 100.66 -1.66 101.32 -2 102 C-1.34 102 -0.68 102 0 102 C-0.33 101.34 -0.66 100.68 -1 100 Z M-7 102 C-5.515 102.99 -5.515 102.99 -4 104 C-3.34 103.34 -2.68 102.68 -2 102 C-3.65 102 -5.3 102 -7 102 Z " fill="#FFFFFF" transform="translate(84,0)"/>
</svg>
