<?xml version="1.0" encoding="UTF-8"?>
<svg version="1.1" xmlns="http://www.w3.org/2000/svg" width="120" height="120">
<path d="M0 0 C7.64288664 5.48235331 11.47591883 13.28283402 13.25 22.375 C14.47934805 31.37314477 11.24347303 40.08052774 6.0390625 47.3359375 C0.09659933 54.10878854 -8.00648391 57.45368471 -16.80859375 58.65625 C-26.00097343 59.10014761 -34.91326462 55.37351495 -41.75 49.375 C-47.74851495 42.53826462 -51.47514761 33.62597343 -51.03125 24.43359375 C-49.82868471 15.63148391 -46.48378854 7.52840067 -39.7109375 1.5859375 C-27.16220216 -7.41545216 -13.18570026 -7.97790268 0 0 Z M-32.75 1.375 C-32.75 6.20244434 -30.13669009 9.21958994 -27.29296875 12.984375 C-24.36285702 15.73895009 -22.78894652 16.42554746 -18.8125 16.8125 C-14.54768491 16.46025987 -13.06738071 15.68611367 -9.98046875 12.66015625 C-7.63736746 9.71883541 -5.65768018 6.61227546 -3.75 3.375 C-7.26227797 -0.34088829 -10.37848483 -1.43154307 -15.52734375 -1.8515625 C-22.02241486 -2.03175363 -26.85062075 -1.34779042 -32.75 1.375 Z M-39.15234375 6.625 C-46.3331549 14.81075928 -47.23453365 21.60758562 -46.75 32.375 C-43.52807114 33.98596443 -41.15801587 32.5564787 -37.8125 31.5 C-34.28116835 30.29148008 -31.4144252 29.27421007 -29.125 26.17578125 C-27.79176489 22.29786183 -27.32287813 19.27728637 -28.75 15.375 C-29.83217531 13.58493558 -30.98426721 11.83604205 -32.1875 10.125 C-32.80496094 9.23296875 -33.42242187 8.3409375 -34.05859375 7.421875 C-34.61675781 6.74640625 -35.17492188 6.0709375 -35.75 5.375 C-37.81426662 5.15320143 -37.81426662 5.15320143 -39.15234375 6.625 Z M-1.75 5.375 C-3.37356346 7.34437661 -4.88559566 9.30845148 -6.375 11.375 C-6.79523438 11.94734375 -7.21546875 12.5196875 -7.6484375 13.109375 C-8.68805801 14.52703933 -9.71977591 15.95049262 -10.75 17.375 C-10.275625 18.261875 -9.80125 19.14875 -9.3125 20.0625 C-7.75 23.375 -7.75 23.375 -6.75 28.375 C-1.8 30.025 3.15 31.675 8.25 33.375 C10.01000919 31.61499081 9.46414179 29.20005906 9.5 26.8125 C9.39813914 18.21544375 7.29016469 13.05182896 1.65234375 6.625 C0.31426662 5.15320143 0.31426662 5.15320143 -1.75 5.375 Z M-26.75 23.375 C-27.58333333 26.375 -27.58333333 26.375 -26.75 29.375 C-24.29405875 32.69774404 -22.8243356 34.15118008 -18.75 35 C-14.6756644 34.15118008 -13.20594125 32.69774404 -10.75 29.375 C-9.91666667 26.375 -9.91666667 26.375 -10.75 23.375 C-13.20594125 20.05225596 -14.6756644 18.59881992 -18.75 17.75 C-22.8243356 18.59881992 -24.29405875 20.05225596 -26.75 23.375 Z M-8.75 31.375 C-10.07 33.025 -11.39 34.675 -12.75 36.375 C-14.73 37.365 -14.73 37.365 -16.75 38.375 C-16.75 43.655 -16.75 48.935 -16.75 54.375 C-8.78374649 54.08531805 -3.578697 51.09155943 2.1171875 45.5625 C4.99633666 42.36650668 6.17334972 40.68160113 7.25 36.375 C1.97 34.725 -3.31 33.075 -8.75 31.375 Z M-39 34.375 C-40.07765625 34.74625 -41.1553125 35.1175 -42.265625 35.5 C-43.08546875 35.78875 -43.9053125 36.0775 -44.75 36.375 C-42.43934218 42.85611339 -38.17137856 48.13054421 -32.3125 51.8125 C-28.25133242 53.59371385 -25.1475845 54.06639758 -20.75 54.375 C-19.56135976 44.7619288 -19.56135976 44.7619288 -22.390625 35.9765625 C-28.16105188 31.59531246 -32.27906697 32.03728416 -39 34.375 Z " fill="#FFFFFF" transform="translate(78.75,33.625)"/>
<path d="M0 0 C10.75888163 9.23916801 18.01168828 21.06324052 19.75 35.3125 C20.78889247 50.29907653 16.85497538 64.48827166 6.97265625 75.99609375 C-3.47373868 86.88310991 -16.52540071 93.20149764 -31.6875 93.5625 C-47.37374852 93.19213024 -60.60860759 87.31837996 -71.47265625 75.99609375 C-81.1383688 64.74050698 -85.22923782 50.98023246 -84.25 36.3125 C-82.61410999 21.5664492 -75.66743487 9.59001229 -64.5 0 C-45.54689465 -14.41134739 -18.97077842 -14.40266153 0 0 Z M-62.25 3.3125 C-63.28125 4.055 -64.3125 4.7975 -65.375 5.5625 C-74.11600326 13.92345964 -79.67142224 24.73816734 -80.48828125 36.84375 C-80.73403112 49.98490094 -78.47910393 60.70753929 -70.25 71.3125 C-69.13625 72.859375 -69.13625 72.859375 -68 74.4375 C-59.63904036 83.17850326 -48.82433266 88.73392224 -36.71875 89.55078125 C-23.57759906 89.79653112 -12.85496071 87.54160393 -2.25 79.3125 C-1.21875 78.57 -0.1875 77.8275 0.875 77.0625 C9.61600326 68.70154036 15.17142224 57.88683266 15.98828125 45.78125 C16.23403112 32.64009906 13.97910393 21.91746071 5.75 11.3125 C5.0075 10.28125 4.265 9.25 3.5 8.1875 C-4.86095964 -0.55350326 -15.67566734 -6.10892224 -27.78125 -6.92578125 C-40.92240094 -7.17153112 -51.64503929 -4.91660393 -62.25 3.3125 Z " fill="#FFFFFF" transform="translate(92.25,18.6875)"/>
</svg>
